<?xml version="1.0"?>
<svg xmlns:rdf="http://www.w3.org/1999/02/22-rdf-syntax-ns#" xmlns="http://www.w3.org/2000/svg" xmlns:cc="http://creativecommons.org/ns#" xmlns:dc="http://purl.org/dc/elements/1.1/" xmlns:svg="http://www.w3.org/2000/svg" id="svg2" viewBox="0 0 237.1 267.52" version="1.1">
  <g id="imagebot_1" transform="translate(-134.41 -62.275)">
    <title id="title5">Layer 1</title>
    <path id="imagebot_3" stroke-linejoin="round" d="m204.57 327.48c-9.438-4.256 2.878-12.765 7.541-16.529 3.14-2.899-18 0.407-9.075-9.656 9.793-8.222 6.094-22.131-3.695-28.596-13.47-9.095-30.754-16.88-35.731-33.864-5.032-10.578 6.902-21.72-0.774-31.273-6.178-12.403 1.04-25.337 5.526-36.827 2.063-15.893-10.575-28.462-17.526-41.52-8.606-12.478-13.568-27.017-14.281-42.17-1.871-6.4676 0.2-16.512 7.674-7.7919 15.652 12.532 32.834 24.424 43.788 41.578 2.074 6.196 10.377 24.155 10.84 7.892 0.218-22.351 7.044-46.729 24.537-61.707 11.899-10.842 18.315 8.1417 18.87 17.788 3.097 18.981-2.036 37.803-7.757 55.733-2.1 8.332-7.569 31.166 8.029 22.747 35.932-13.873 79.466 0.697 102.87 30.498 10.759 14.43 15.47 32.968 15.364 50.768-5.54 10.457 15.044-0.196 7.585 11.869-4.391 13.364-16.797 20.616-25.486 30.704-8.842 8.083-2.282 25.366-16.905 27.912-21.337 6.578-43.742 9.46-65.955 11.136-12.43 2.547-18.462-11.667-6.549-17.576 5.712-8.805 22.054-9.421 26.909-10.816-11.603 1.135-25.911-3.601-35.688 3.584-5.921 9.613-10.664 22.264-23.08 25.008-5.58 1.549-11.317 2.792-17.031 1.108v0z" stroke-opacity="null" stroke="#000" stroke-linecap="round" stroke-width="3" fill="#fff"/>
    <ellipse id="imagebot_4" stroke-linejoin="round" d="m 193.43017,105.73268 c 0,15.40199 -3.39208,27.88776 -7.57643,27.88776 -4.18434,0 -7.57643,-12.48577 -7.57643,-27.88776 0,-15.401983 3.39209,-27.887759 7.57643,-27.887759 4.18435,0 7.57643,12.485776 7.57643,27.887759 z" cy="105.73" rx="7.5764" transform="matrix(.96895 .24725 -.24725 .96895 67.449 -36.855)" ry="27.888" stroke="#ffaad4" cx="185.85" stroke-linecap="round" stroke-width="3" fill="#ffaad4"/>
    <ellipse id="imagebot_5" stroke-linejoin="round" d="m 160.33126,105.04395 c 0,12.67705 -2.38569,22.95383 -5.32857,22.95383 -2.94289,0 -5.32857,-10.27678 -5.32857,-22.95383 0,-12.677048 2.38568,-22.953828 5.32857,-22.953828 2.94288,0 5.32857,10.27678 5.32857,22.953828 z" cy="105.04" rx="5.3286" transform="matrix(.80836 -.58869 .58869 .80836 -21.235 125.75)" ry="22.954" stroke="#ffaad4" cx="155" stroke-linecap="round" stroke-width="3" fill="#ffaad4"/>
    <ellipse id="imagebot_8" stroke-linejoin="round" d="m 210.56736,183.30205 c 0,2.15655 -1.74824,3.90479 -3.90479,3.90479 -2.15656,0 -3.90479,-1.74824 -3.90479,-3.90479 0,-2.15656 1.74823,-3.90479 3.90479,-3.90479 2.15655,0 3.90479,1.74823 3.90479,3.90479 z" cy="183.3" rx="3.9048" ry="3.9048" stroke="#000" cx="206.66" stroke-linecap="round" stroke-width="3" fill="#fff"/>
    <ellipse id="imagebot_12" stroke-linejoin="round" d="m 169.68485,192.59583 c 0,2.73848 -1.60757,4.95846 -3.59061,4.95846 -1.98304,0 -3.59061,-2.21998 -3.59061,-4.95846 0,-2.73849 1.60757,-4.95846 3.59061,-4.95846 1.98304,0 3.59061,2.21997 3.59061,4.95846 z" cy="192.6" rx="3.5906" ry="4.9585" stroke="#faa" cx="166.09" stroke-linecap="round" stroke-width="3" fill="#faa"/>
    <path id="imagebot_36" stroke-linejoin="round" d="m238.99 170.12v4.626c0 0.331-0.33 0.331-0.33 0.991v0.661c0 0.331 0 0.661-0.331 0.992 0 0 0.234 0.427 0 0.66-0.233 0.234-0.66 0.331-0.66 0.661 0 0.331-0.331 0.661-0.331 0.661-0.33 0.331-0.33 0.661-0.33 0.991v0.992c0 0.33-0.097 0.427-0.331 0.66-0.233 0.234-0.204 0.356-0.33 0.661-0.179 0.432-0.661 0.331-0.661 0.992v0.33c0 0.33-0.33 0.33-0.33 0.661 0 0.33-0.161 0.602-0.331 1.321-0.076 0.322-0.482 0.56-0.661 0.992-0.126 0.305-0.33 0.991-0.33 1.321 0 0.331-0.494 0.291-0.661 1.322-0.053 0.326-0.229 0.392-0.661 0.991-0.273 0.379-0.991 0.992-1.321 1.322-0.331 0.33-0.746 0.594-0.992 0.991-0.549 0.889-0.612 1.379-0.991 1.652-0.599 0.432-0.89 0.723-1.322 1.322-0.273 0.379-0.362 0.933-0.991 1.322-0.281 0.173-0.33 0.33-0.661 0.661-0.33 0.33-0.661 0.66-0.991 0.991-0.33 0.33-0.71 0.487-0.991 0.661-0.629 0.388-0.535 1.016-0.661 1.321-0.179 0.432-0.711 0.408-1.322 0.661-0.431 0.179-0.229 0.813-0.661 0.991-0.305 0.127-0.33 0.331-0.66 0.661-0.331 0.331-0.723 0.56-1.322 0.992-0.379 0.273-0.718 0.612-0.991 0.991-0.432 0.599-0.992 0.991-1.322 1.321-0.33 0.331-1.016 0.535-1.322 0.661-0.431 0.179-1.035 0.519-2.313 0.992-0.693 0.256-1.22 0.812-1.652 0.991-0.305 0.126-0.933-0.298-1.321 0.33-0.174 0.281-0.428 0.097-0.661 0.331-0.234 0.233-0.427 0.096-0.661 0.33s-0.661 0.33-0.991 0.33c-0.331 0-0.428 0.097-0.661 0.331-0.234 0.234-0.686-0.127-0.991 0-0.432 0.179-0.661 0.33-1.322 0.33-0.331 0-0.331 0.331-0.661 0.331s-0.603 0.16-1.322 0.33c-0.321 0.076-0.362 0.273-0.991 0.661-0.562 0.347-1.347-0.126-1.652 0-0.432 0.179-0.661 0.33-0.991 0.33-0.331 0-0.661 0.331-0.992 0.331h-0.66c-0.661 0-0.661 0.33-0.992 0.33h-0.991c-0.33 0-0.661 0.331-0.991 0.331-0.331 0-0.661 0.33-0.991 0.33h-0.661c-0.331 0-0.56 0.152-0.991 0.331-0.306 0.126-0.686-0.127-0.992 0-0.431 0.178-0.661 0.33-0.661 0.33h-0.66c0 0.33-0.661 0.33-0.992 0.33h-0.66c-0.331 0-0.56 0.152-0.992 0.331-0.305 0.126-0.89 0.151-1.321 0.33-0.306 0.127-0.661 0-0.992 0h-7.599c-0.331 0-0.428-0.097-0.661-0.33-0.234-0.234-0.661 0-0.661 0-0.33 0-0.524-0.194-0.991-0.661-0.234-0.234-0.427-0.097-0.661-0.33-0.234-0.234-0.661-0.331-0.991-0.331h-0.661v-0.33h-0.331" stroke="#e5e5e5" stroke-linecap="round" stroke-width="4" fill="none"/>
    <path id="imagebot_38" stroke-linejoin="round" d="m313.72 227.86h-1.567c-0.522 0-0.322 0.04-0.522 0.523-0.283 0.682-1.198 0.153-1.568 0.522-0.369 0.37-0.522 1.045-1.045 1.045-0.522 0-0.362 0.24-1.044 0.522-0.483 0.2-2.613 1.045-3.657 1.568-1.045 0.522-1.93 1.284-2.613 1.567-0.482 0.2-0.522 1.045-1.044 1.045 0 0-0.363 0.24-1.045 0.522-0.483 0.2-1.045 0.523-1.568 1.045-0.522 0.523-1.225 0.891-2.089 2.09-0.683 0.948-0.845 1.607-1.045 2.09-0.283 0.682-0.845 0.562-1.045 1.045-0.283 0.682-0.885 1.284-1.567 1.567-0.483 0.2-0.676 0.153-1.045 0.522-0.37 0.37-0.091 0.446-0.523 1.045-0.683 0.948-0.522 1.567-1.044 2.09-0.523 0.522-1.285 0.885-1.568 1.567-0.2 0.483-0.522 1.045-0.522 1.567 0 0.523-0.24 0.885-0.523 1.568-0.2 0.482 0.2 1.084 0 1.567-0.282 0.683-0.762 0.885-1.045 1.567-0.199 0.483-0.239 0.885-0.522 1.568-0.2 0.482 0.369 1.197 0 1.567-0.369 0.369-0.522 1.045-0.522 1.567 0 1.045-1.045 1.568-1.045 1.568 0 0.522-0.153 0.675-0.523 1.044-0.369 0.37 0 1.045 0 1.045v5.747c0 0.522-0.153 0.675-0.522 1.045-1.108 1.108 0 2.612 0 3.134v3.135c0 0.522 0.24 1.407 0.522 2.09 0.2 0.482-0.2 1.084 0 1.567 0.283 0.683 0.323 1.085 0.523 1.567 0.282 0.683 0.522 1.045 0.522 1.568 0 0.522 0.523 0.522 0.523 1.044 0 0 0.522 0 0.522 1.045v2.09c0 0.523-0.369 0.676 0 1.045s0.522 0.522 0.522 1.045v3.134" stroke-opacity="null" fill-opacity="null" stroke="#e5e5e5" stroke-linecap="round" stroke-width="3" fill="none"/>
    <circle id="imagebot_42" d="m 180.43564,184.54938 c 0,0.27614 -0.22386,0.5 -0.5,0.5 -0.27614,0 -0.5,-0.22386 -0.5,-0.5 0,-0.27614 0.22386,-0.5 0.5,-0.5 0.27614,0 0.5,0.22386 0.5,0.5 z" stroke-opacity="null" fill-opacity="null" cy="184.55" cx="179.94" stroke-width="nan"/>
  </g>
  <metadata>
    <rdf:RDF>
      <cc:Work>
        <dc:format>image/svg+xml</dc:format>
        <dc:type rdf:resource="http://purl.org/dc/dcmitype/StillImage"/>
        <cc:license rdf:resource="http://creativecommons.org/licenses/publicdomain/"/>
        <dc:publisher>
          <cc:Agent rdf:about="http://openclipart.org/">
            <dc:title>Openclipart</dc:title>
          </cc:Agent>
        </dc:publisher>
        <dc:title>bunny</dc:title>
        <dc:date>2013-09-10T00:38:23</dc:date>
        <dc:description>A little white rabbit.</dc:description>
        <dc:source>http://openclipart.org/detail/183271/bunny-by-juliamatic-183271</dc:source>
        <dc:creator>
          <cc:Agent>
            <dc:title>JuliaMatic</dc:title>
          </cc:Agent>
        </dc:creator>
        <dc:subject>
          <rdf:Bag>
            <rdf:li>animal</rdf:li>
            <rdf:li>bunny</rdf:li>
            <rdf:li>rabbit</rdf:li>
          </rdf:Bag>
        </dc:subject>
      </cc:Work>
      <cc:License rdf:about="http://creativecommons.org/licenses/publicdomain/">
        <cc:permits rdf:resource="http://creativecommons.org/ns#Reproduction"/>
        <cc:permits rdf:resource="http://creativecommons.org/ns#Distribution"/>
        <cc:permits rdf:resource="http://creativecommons.org/ns#DerivativeWorks"/>
      </cc:License>
    </rdf:RDF>
  </metadata>
</svg>
